<svg width="395" height="121" viewBox="0 0 395 121" fill="none" xmlns="http://www.w3.org/2000/svg">
<g opacity="0.9" filter="url(#filter0_i_39_296)">
<path d="M0 60.3824C0 35.5513 0 23.1358 6.19395 14.3538C8.42729 11.1872 11.1872 8.42729 14.3538 6.19395C23.1358 0 35.5513 0 60.3823 0H334.324C359.155 0 371.57 0 380.352 6.19395C383.519 8.42729 386.279 11.1872 388.512 14.3538C394.706 23.1358 394.706 35.5513 394.706 60.3824C394.706 85.2134 394.706 97.6289 388.512 106.411C386.279 109.577 383.519 112.337 380.352 114.571C371.57 120.765 359.155 120.765 334.324 120.765H60.3823C35.5513 120.765 23.1358 120.765 14.3538 114.571C11.1872 112.337 8.42729 109.577 6.19395 106.411C0 97.6289 0 85.2134 0 60.3824Z" fill="#001E36"/>
<path d="M113.833 57.7115C114.672 57.7115 115.333 57.9529 115.816 58.4357C116.324 58.8931 116.578 59.5157 116.578 60.3035V66.936C116.578 68.2066 116.476 69.1849 116.273 69.871C116.095 70.5317 115.752 71.0527 115.244 71.4339C114.761 71.815 114.024 72.1454 113.033 72.4249C112.042 72.679 110.936 72.8696 109.717 72.9967C108.522 73.1491 107.404 73.2254 106.362 73.2254C103.44 73.2254 100.899 72.679 98.7388 71.5863C96.6042 70.4682 94.9652 68.88 93.8216 66.8216C92.6781 64.7379 92.1063 62.2729 92.1063 59.4268C92.1063 56.6315 92.6781 54.2047 93.8216 52.1463C94.9652 50.0626 96.5915 48.4616 98.7007 47.3435C100.81 46.2254 103.275 45.6663 106.096 45.6663C107.874 45.6663 109.463 45.8823 110.86 46.3143C112.283 46.7209 113.605 47.3562 114.824 48.2202C115.256 48.5251 115.561 48.8555 115.739 49.2113C115.943 49.567 116.044 50.0244 116.044 50.5835C116.044 51.3713 115.828 52.0447 115.396 52.6037C114.964 53.1374 114.443 53.4042 113.833 53.4042C113.427 53.4042 113.071 53.3534 112.766 53.2517C112.487 53.1247 112.118 52.9214 111.661 52.6419C110.72 52.1336 109.831 51.7651 108.992 51.5364C108.179 51.3077 107.29 51.1934 106.324 51.1934C103.91 51.1934 102.106 51.8668 100.912 53.2136C99.7426 54.5604 99.1581 56.6315 99.1581 59.4268C99.1581 62.2983 99.768 64.4329 100.988 65.8306C102.233 67.2028 104.126 67.8889 106.667 67.8889C107.887 67.8889 109.094 67.7619 110.288 67.5077V62.5143H107.544C106.705 62.5143 106.057 62.311 105.6 61.9044C105.143 61.4724 104.914 60.8753 104.914 60.1129C104.914 59.3506 105.143 58.7661 105.6 58.3595C106.057 57.9275 106.705 57.7115 107.544 57.7115H113.833ZM135.947 66.8597C136.531 66.8597 137.002 67.0884 137.357 67.5459C137.739 68.0033 137.929 68.6004 137.929 69.3374C137.929 70.3539 137.434 71.1289 136.443 71.6626C135.579 72.0946 134.549 72.463 133.355 72.768C132.186 73.0475 131.106 73.1873 130.115 73.1873C128.031 73.1873 126.214 72.7934 124.664 72.0056C123.114 71.2179 121.92 70.087 121.081 68.6131C120.243 67.1393 119.823 65.4113 119.823 63.4291C119.823 61.5487 120.217 59.8715 121.005 58.3976C121.818 56.8983 122.936 55.7421 124.359 54.9289C125.808 54.0903 127.434 53.671 129.238 53.671C130.992 53.671 132.529 54.0522 133.851 54.8146C135.172 55.5769 136.188 56.6569 136.9 58.0546C137.637 59.4522 138.005 61.0913 138.005 62.9717C138.005 63.5562 137.866 64.0136 137.586 64.344C137.332 64.6489 136.951 64.8014 136.443 64.8014H126.379C126.557 66.0211 126.951 66.8979 127.561 67.4315C128.171 67.9651 129.073 68.232 130.267 68.232C130.903 68.232 131.487 68.1684 132.021 68.0414C132.555 67.8889 133.152 67.6856 133.812 67.4315C134.194 67.279 134.562 67.152 134.918 67.0503C135.299 66.9233 135.642 66.8597 135.947 66.8597ZM129.429 58.2451C128.539 58.2451 127.828 58.5374 127.294 59.1219C126.761 59.6809 126.443 60.5068 126.341 61.5995H132.326C132.173 59.3633 131.208 58.2451 129.429 58.2451ZM151.744 68.2701C153.447 68.3717 154.298 69.1341 154.298 70.5571C154.298 71.4466 153.955 72.1073 153.269 72.5393C152.583 72.9713 151.605 73.1491 150.334 73.0729L149.267 72.9967C146.98 72.8188 145.239 72.1327 144.045 70.9383C142.876 69.7186 142.291 68.0287 142.291 65.8687V59.1219H141.186C139.153 59.1219 138.136 58.2833 138.136 56.6061C138.136 54.9543 139.153 54.1284 141.186 54.1284H142.291V51.6508C142.291 50.6851 142.596 49.9228 143.206 49.3637C143.816 48.7793 144.642 48.487 145.684 48.487C146.726 48.487 147.551 48.7793 148.161 49.3637C148.771 49.9228 149.076 50.6851 149.076 51.6508V54.1284H151.173C153.206 54.1284 154.222 54.9543 154.222 56.6061C154.222 58.2833 153.206 59.1219 151.173 59.1219H149.076V66.4404C149.076 66.9233 149.216 67.3299 149.495 67.6602C149.8 67.9906 150.182 68.1684 150.639 68.1939L151.744 68.2701ZM177.566 73.2254C175.533 73.2254 173.639 73.0094 171.886 72.5774C170.158 72.12 168.735 71.4974 167.617 70.7096C167.185 70.3793 166.867 70.0362 166.664 69.6804C166.486 69.3247 166.397 68.8673 166.397 68.3082C166.397 67.5459 166.626 66.8851 167.083 66.3261C167.541 65.767 168.074 65.4875 168.684 65.4875C169.014 65.4875 169.332 65.5383 169.637 65.64C169.942 65.7416 170.323 65.9322 170.781 66.2117C171.822 66.7962 172.852 67.2155 173.868 67.4696C174.91 67.7237 176.079 67.8508 177.375 67.8508C178.874 67.8508 180.005 67.6348 180.767 67.2028C181.555 66.7454 181.949 66.0847 181.949 65.2207C181.949 64.6362 181.581 64.1407 180.844 63.7341C180.132 63.3021 178.76 62.8828 176.727 62.4762C174.211 61.9426 172.242 61.3073 170.819 60.5703C169.396 59.8334 168.392 58.9694 167.807 57.9783C167.248 56.9619 166.969 55.7421 166.969 54.319C166.969 52.6927 167.452 51.2188 168.417 49.8974C169.383 48.576 170.704 47.5468 172.382 46.8099C174.084 46.0475 175.99 45.6663 178.099 45.6663C179.954 45.6663 181.606 45.8696 183.054 46.2762C184.503 46.6828 185.824 47.3181 187.019 48.1821C187.476 48.5124 187.794 48.8682 187.972 49.2494C188.175 49.6051 188.277 50.0499 188.277 50.5835C188.277 51.3459 188.048 52.0066 187.59 52.5656C187.158 53.1247 186.638 53.4042 186.028 53.4042C185.697 53.4042 185.392 53.3661 185.113 53.2899C184.833 53.1882 184.439 52.9849 183.931 52.68C183.804 52.6037 183.436 52.4131 182.826 52.1082C182.241 51.7779 181.542 51.5237 180.729 51.3459C179.942 51.1426 179.078 51.0409 178.137 51.0409C176.841 51.0409 175.799 51.295 175.012 51.8033C174.224 52.2861 173.83 52.9341 173.83 53.7473C173.83 54.2301 173.97 54.624 174.249 54.9289C174.529 55.2339 175.05 55.5388 175.812 55.8437C176.574 56.1233 177.705 56.4155 179.205 56.7204C181.644 57.2541 183.563 57.9021 184.96 58.6644C186.358 59.4014 187.349 60.2654 187.934 61.2564C188.518 62.2475 188.81 63.4164 188.81 64.7633C188.81 66.4404 188.34 67.927 187.4 69.223C186.46 70.4936 185.138 71.4847 183.436 72.1962C181.758 72.8823 179.802 73.2254 177.566 73.2254ZM202.965 68.2701C204.668 68.3717 205.519 69.1341 205.519 70.5571C205.519 71.4466 205.176 72.1073 204.49 72.5393C203.804 72.9713 202.825 73.1491 201.555 73.0729L200.487 72.9967C198.2 72.8188 196.46 72.1327 195.265 70.9383C194.096 69.7186 193.512 68.0287 193.512 65.8687V59.1219H192.406C190.373 59.1219 189.357 58.2833 189.357 56.6061C189.357 54.9543 190.373 54.1284 192.406 54.1284H193.512V51.6508C193.512 50.6851 193.817 49.9228 194.427 49.3637C195.037 48.7793 195.862 48.487 196.904 48.487C197.946 48.487 198.772 48.7793 199.382 49.3637C199.992 49.9228 200.297 50.6851 200.297 51.6508V54.1284H202.393C204.426 54.1284 205.443 54.9543 205.443 56.6061C205.443 58.2833 204.426 59.1219 202.393 59.1219H200.297V66.4404C200.297 66.9233 200.437 67.3299 200.716 67.6602C201.021 67.9906 201.402 68.1684 201.86 68.1939L202.965 68.2701ZM216.05 53.671C218.947 53.671 221.081 54.3699 222.454 55.7675C223.851 57.1397 224.55 59.2362 224.55 62.0569V70.0235C224.55 70.9891 224.258 71.7515 223.673 72.3106C223.114 72.8442 222.326 73.111 221.31 73.111C220.421 73.111 219.684 72.8569 219.099 72.3487C218.54 71.8404 218.235 71.1543 218.184 70.2903C217.829 71.2051 217.231 71.9167 216.393 72.4249C215.554 72.9331 214.55 73.1873 213.382 73.1873C212.086 73.1873 210.917 72.9331 209.875 72.4249C208.833 71.8913 208.007 71.167 207.397 70.2522C206.813 69.312 206.52 68.2574 206.52 67.0884C206.52 65.7416 206.863 64.6743 207.55 63.8866C208.261 63.0734 209.379 62.4889 210.904 62.1331C212.429 61.7774 214.487 61.5995 217.079 61.5995H218.108V61.1421C218.108 60.2527 217.905 59.6174 217.498 59.2362C217.092 58.8296 216.406 58.6263 215.44 58.6263C214.398 58.6263 212.873 58.9821 210.866 59.6936C210.281 59.8969 209.786 59.9986 209.379 59.9986C208.744 59.9986 208.236 59.7699 207.854 59.3124C207.473 58.855 207.283 58.2579 207.283 57.5209C207.283 56.9619 207.397 56.5044 207.626 56.1487C207.854 55.7929 208.223 55.4753 208.731 55.1957C209.621 54.7383 210.739 54.3699 212.086 54.0903C213.432 53.8108 214.754 53.671 216.05 53.671ZM214.982 68.6513C215.897 68.6513 216.647 68.3336 217.231 67.6983C217.816 67.0376 218.108 66.199 218.108 65.1826V64.7251H217.498C215.872 64.7251 214.716 64.8776 214.03 65.1826C213.343 65.4621 213 65.9449 213 66.631C213 67.2155 213.178 67.6983 213.534 68.0795C213.915 68.4607 214.398 68.6513 214.982 68.6513ZM240.245 53.7473C241.109 53.671 241.795 53.8743 242.304 54.3571C242.812 54.8146 243.066 55.5007 243.066 56.4155C243.066 57.432 242.825 58.1689 242.342 58.6263C241.884 59.0837 241.046 59.376 239.826 59.503L238.682 59.6174C237.412 59.7699 236.497 60.1764 235.938 60.8371C235.404 61.4724 235.137 62.3491 235.137 63.4673V69.9854C235.137 71.0273 234.807 71.815 234.146 72.3487C233.511 72.8569 232.711 73.111 231.745 73.111C230.779 73.111 229.966 72.8569 229.305 72.3487C228.67 71.815 228.353 71.0273 228.353 69.9854V56.7967C228.353 55.831 228.67 55.0814 229.305 54.5477C229.966 54.0141 230.754 53.7473 231.669 53.7473C232.609 53.7473 233.359 54.0014 233.918 54.5096C234.502 55.0179 234.794 55.7294 234.794 56.6442V57.3684C235.201 56.2503 235.862 55.3863 236.777 54.7764C237.717 54.1666 238.695 53.8362 239.712 53.7854L240.245 53.7473ZM257.424 68.2701C259.127 68.3717 259.978 69.1341 259.978 70.5571C259.978 71.4466 259.635 72.1073 258.949 72.5393C258.263 72.9713 257.284 73.1491 256.014 73.0729L254.946 72.9967C252.659 72.8188 250.919 72.1327 249.724 70.9383C248.555 69.7186 247.971 68.0287 247.971 65.8687V59.1219H246.865C244.833 59.1219 243.816 58.2833 243.816 56.6061C243.816 54.9543 244.833 54.1284 246.865 54.1284H247.971V51.6508C247.971 50.6851 248.276 49.9228 248.886 49.3637C249.496 48.7793 250.321 48.487 251.363 48.487C252.405 48.487 253.231 48.7793 253.841 49.3637C254.451 49.9228 254.756 50.6851 254.756 51.6508V54.1284H256.852C258.885 54.1284 259.902 54.9543 259.902 56.6061C259.902 58.2833 258.885 59.1219 256.852 59.1219H254.756V66.4404C254.756 66.9233 254.896 67.3299 255.175 67.6602C255.48 67.9906 255.861 68.1684 256.319 68.1939L257.424 68.2701ZM277.027 66.8597C277.611 66.8597 278.082 67.0884 278.437 67.5459C278.818 68.0033 279.009 68.6004 279.009 69.3374C279.009 70.3539 278.514 71.1289 277.522 71.6626C276.658 72.0946 275.629 72.463 274.435 72.768C273.266 73.0475 272.186 73.1873 271.195 73.1873C269.111 73.1873 267.294 72.7934 265.744 72.0056C264.194 71.2179 263 70.087 262.161 68.6131C261.322 67.1393 260.903 65.4113 260.903 63.4291C260.903 61.5487 261.297 59.8715 262.085 58.3976C262.898 56.8983 264.016 55.7421 265.439 54.9289C266.888 54.0903 268.514 53.671 270.318 53.671C272.072 53.671 273.609 54.0522 274.93 54.8146C276.252 55.5769 277.268 56.6569 277.98 58.0546C278.717 59.4522 279.085 61.0913 279.085 62.9717C279.085 63.5562 278.946 64.0136 278.666 64.344C278.412 64.6489 278.031 64.8014 277.522 64.8014H267.459C267.637 66.0211 268.031 66.8979 268.641 67.4315C269.251 67.9651 270.153 68.232 271.347 68.232C271.983 68.232 272.567 68.1684 273.101 68.0414C273.634 67.8889 274.232 67.6856 274.892 67.4315C275.274 67.279 275.642 67.152 275.998 67.0503C276.379 66.9233 276.722 66.8597 277.027 66.8597ZM270.509 58.2451C269.619 58.2451 268.908 58.5374 268.374 59.1219C267.841 59.6809 267.523 60.5068 267.421 61.5995H273.406C273.253 59.3633 272.288 58.2451 270.509 58.2451ZM298.569 45.8188C299.586 45.8188 300.412 46.111 301.047 46.6955C301.708 47.2546 302.038 47.9788 302.038 48.8682V69.9854C302.038 70.951 301.733 71.7134 301.123 72.2724C300.513 72.8315 299.7 73.111 298.684 73.111C297.744 73.111 296.968 72.8696 296.359 72.3868C295.774 71.8786 295.444 71.1924 295.368 70.3284C294.834 71.2179 294.046 71.9167 293.004 72.4249C291.988 72.9331 290.857 73.1873 289.612 73.1873C288.011 73.1873 286.575 72.7807 285.304 71.9675C284.059 71.1289 283.081 69.96 282.369 68.4607C281.658 66.9614 281.302 65.2461 281.302 63.3148C281.302 61.3835 281.645 59.6936 282.331 58.2451C283.043 56.7713 284.021 55.6404 285.266 54.8527C286.537 54.0649 287.985 53.671 289.612 53.671C290.806 53.671 291.899 53.9124 292.89 54.3953C293.906 54.8781 294.694 55.5261 295.253 56.3393V48.7539C295.253 47.8644 295.545 47.1529 296.13 46.6193C296.74 46.0856 297.553 45.8188 298.569 45.8188ZM291.67 68.1176C292.864 68.1176 293.779 67.711 294.415 66.8979C295.05 66.0847 295.368 64.9157 295.368 63.391C295.368 61.8917 295.05 60.7482 294.415 59.9604C293.779 59.1473 292.864 58.7407 291.67 58.7407C290.501 58.7407 289.599 59.1346 288.964 59.9223C288.328 60.7101 288.011 61.8409 288.011 63.3148C288.011 64.8395 288.328 66.0211 288.964 66.8597C289.624 67.6983 290.527 68.1176 291.67 68.1176Z" fill="white"/>
</g>
<defs>
<filter id="filter0_i_39_296" x="0" y="0" width="394.706" height="120.765" filterUnits="userSpaceOnUse" color-interpolation-filters="sRGB">
<feFlood flood-opacity="0" result="BackgroundImageFix"/>
<feBlend mode="normal" in="SourceGraphic" in2="BackgroundImageFix" result="shape"/>
<feColorMatrix in="SourceAlpha" type="matrix" values="0 0 0 0 0 0 0 0 0 0 0 0 0 0 0 0 0 0 127 0" result="hardAlpha"/>
<feOffset/>
<feGaussianBlur stdDeviation="6"/>
<feComposite in2="hardAlpha" operator="arithmetic" k2="-1" k3="1"/>
<feColorMatrix type="matrix" values="0 0 0 0 0.286275 0 0 0 0 0.32549 0 0 0 0 0.25098 0 0 0 0.25 0"/>
<feBlend mode="normal" in2="shape" result="effect1_innerShadow_39_296"/>
</filter>
</defs>
</svg>
