<svg width="239" height="1056" viewBox="0 0 239 1056" fill="none" xmlns="http://www.w3.org/2000/svg">
<g filter="url(#filter0_b_39_29)">
<path d="M48.4 1024.96C36.84 1024.96 28.34 1026.55 22.9 1029.72C17.2333 1032.89 14.4 1039.24 14.4 1048.76V1055.56H7.59999L7.59999 967.16C7.59999 945.4 12.2467 925.793 21.54 908.34C30.8333 890.887 48.8533 882.16 75.6 882.16C93.28 882.16 106.88 886.693 116.4 895.76C125.92 904.827 132.267 915.027 135.44 926.36C138.613 937.467 140.2 947.667 140.2 956.96V994.36H232V1024.96H48.4ZM128.3 968.86C128.3 961.607 126.487 953.9 122.86 945.74C119.007 937.58 113 930.667 104.84 925C96.68 919.107 86.3667 916.16 73.9 916.16C61.4333 916.16 51.12 919.107 42.96 925C34.8 930.667 28.9067 937.58 25.28 945.74C21.4267 953.9 19.5 961.607 19.5 968.86C19.5 976.793 20.6333 985.293 22.9 994.36H124.9C127.167 985.293 128.3 976.793 128.3 968.86ZM238.8 752.362C238.8 773.442 233.587 792.029 223.16 808.122C212.733 823.989 198.453 836.229 180.32 844.842C162.187 853.456 142.013 857.762 119.8 857.762C97.5867 857.762 77.4133 853.456 59.28 844.842C41.1467 836.229 26.8667 823.989 16.44 808.122C6.01333 792.029 0.799998 773.442 0.799998 752.362C0.799998 731.282 6.01333 712.809 16.44 696.942C26.8667 680.849 41.1467 668.496 59.28 659.882C77.4133 651.269 97.5867 646.962 119.8 646.962C142.013 646.962 162.187 651.269 180.32 659.882C198.453 668.496 212.733 680.849 223.16 696.942C233.587 712.809 238.8 731.282 238.8 752.362ZM225.2 752.362C225.2 737.629 220.893 724.936 212.28 714.282C203.667 703.402 191.54 695.129 175.9 689.462C160.033 683.796 141.333 680.962 119.8 680.962C98.2667 680.962 79.68 683.796 64.04 689.462C48.1733 695.129 35.9333 703.402 27.32 714.282C18.7066 724.936 14.4 737.629 14.4 752.362C14.4 767.096 18.7066 779.902 27.32 790.782C35.9333 801.436 48.1733 809.596 64.04 815.262C79.68 820.929 98.2667 823.762 119.8 823.762C141.333 823.762 160.033 820.929 175.9 815.262C191.54 809.596 203.667 801.436 212.28 790.782C220.893 779.902 225.2 767.096 225.2 752.362ZM48.4 597.636C36.84 597.636 28.34 599.222 22.9 602.396C17.2333 605.569 14.4 611.916 14.4 621.436V628.236H7.59999V597.636C7.59999 589.249 8.73332 583.016 11 578.936C13.04 574.629 16.8933 571.569 22.56 569.756C28.2267 567.942 36.84 567.036 48.4 567.036H218.4V446.336H232V597.636H48.4ZM233.7 232.606C233.7 243.486 230.753 254.253 224.86 264.906C218.74 275.559 206.953 284.059 189.5 290.406L167.4 298.906V394.106L232 421.306V436.606L7.59999 341.406V331.206L189.5 256.406C202.647 250.739 211.713 245.413 216.7 240.426C221.46 235.439 224.293 228.299 225.2 219.006H232C233.133 223.086 233.7 227.619 233.7 232.606ZM153.8 389.006V305.706L55.2 346.506L153.8 389.006ZM48.4 192.226C36.84 192.226 28.34 193.812 22.9 196.986C17.2333 200.159 14.4 206.506 14.4 216.026V222.826H7.59999L7.59999 133.746C7.59999 89.7723 17.3467 56.5656 36.84 34.1256C56.3333 11.459 83.5333 0.125624 118.44 0.125624C140.88 0.125624 160.713 4.88562 177.94 14.4056C194.94 23.9256 208.2 38.0923 217.72 56.9056C227.24 75.4923 232 98.159 232 124.906V192.226H48.4ZM220.1 125.926C220.1 109.152 216.02 94.0789 207.86 80.7056C199.473 67.1056 187.8 56.4523 172.84 48.7456C157.653 41.039 139.973 37.1856 119.8 37.1856C100.08 37.1856 82.6267 41.039 67.44 48.7456C52.2533 56.2256 40.4667 66.7656 32.08 80.3656C23.6933 93.9656 19.5 109.379 19.5 126.606C19.5 137.486 21.3133 148.819 24.94 160.606H215.68C218.627 147.912 220.1 136.352 220.1 125.926Z" fill="white"/>
</g>
<defs>
<filter id="filter0_b_39_29" x="-49.2" y="-49.8744" width="338" height="1155.43" filterUnits="userSpaceOnUse" color-interpolation-filters="sRGB">
<feFlood flood-opacity="0" result="BackgroundImageFix"/>
<feGaussianBlur in="BackgroundImage" stdDeviation="25"/>
<feComposite in2="SourceAlpha" operator="in" result="effect1_backgroundBlur_39_29"/>
<feBlend mode="normal" in="SourceGraphic" in2="effect1_backgroundBlur_39_29" result="shape"/>
</filter>
</defs>
</svg>
